<?xml version="1.0" encoding="UTF-8" standalone="no"?>
<svg
   xmlns:dc="http://purl.org/dc/elements/1.1/"
   xmlns:cc="http://creativecommons.org/ns#"
   xmlns:rdf="http://www.w3.org/1999/02/22-rdf-syntax-ns#"
   xmlns:svg="http://www.w3.org/2000/svg"
   xmlns="http://www.w3.org/2000/svg"
   xmlns:sodipodi="http://sodipodi.sourceforge.net/DTD/sodipodi-0.dtd"
   xmlns:inkscape="http://www.inkscape.org/namespaces/inkscape"
   sodipodi:docname="drawing.svg"
   inkscape:version="1.0 (6e3e5246a0, 2020-05-07)"
   id="svg8"
   version="1.1"
   viewBox="0 0 5.2916665 5.2916668"
   height="20"
   width="20">
  <defs
     id="defs2" />
  <sodipodi:namedview
     inkscape:window-maximized="1"
     inkscape:window-y="24"
     inkscape:window-x="0"
     inkscape:window-height="1019"
     inkscape:window-width="1920"
     units="px"
     showgrid="false"
     inkscape:document-rotation="0"
     inkscape:current-layer="layer1"
     inkscape:document-units="px"
     inkscape:cy="6.4645041"
     inkscape:cx="19.513867"
     inkscape:zoom="15.839192"
     inkscape:pageshadow="2"
     inkscape:pageopacity="0.0"
     borderopacity="1.0"
     bordercolor="#666666"
     pagecolor="#ffffff"
     id="base" />
  <metadata
     id="metadata5">
    <rdf:RDF>
      <cc:Work
         rdf:about="">
        <dc:format>image/svg+xml</dc:format>
        <dc:type
           rdf:resource="http://purl.org/dc/dcmitype/StillImage" />
        <dc:title></dc:title>
      </cc:Work>
    </rdf:RDF>
  </metadata>
  <g
     id="layer1"
     inkscape:groupmode="layer"
     inkscape:label="Layer 1">
    <path
       transform="scale(0.26458333)"
       d="M 9.9804688 0 A 9.9999998 9.9999998 0 0 0 0 10 A 9.9999998 9.9999998 0 0 0 10 20 A 9.9999998 9.9999998 0 0 0 20 10 A 9.9999998 9.9999998 0 0 0 10 0 A 9.9999998 9.9999998 0 0 0 9.9804688 0 z M 8.0859375 4.5039062 L 9.3613281 4.5039062 L 9.3613281 15.294922 L 8.0859375 15.294922 L 8.0859375 14.128906 C 7.8177951 14.59122 7.4778658 14.935575 7.0664062 15.162109 C 6.6595697 15.38402 6.1689728 15.496094 5.5957031 15.496094 C 4.6572054 15.496094 3.8925434 15.121996 3.3007812 14.373047 C 2.7136423 13.624098 2.4199219 12.638478 2.4199219 11.417969 C 2.4199219 10.197459 2.7136423 9.2137926 3.3007812 8.4648438 C 3.8925434 7.7158946 4.6572054 7.3398438 5.5957031 7.3398438 C 6.1689728 7.3398438 6.6595697 7.4531527 7.0664062 7.6796875 C 7.4778658 7.9015987 7.8177951 8.2447183 8.0859375 8.7070312 L 8.0859375 4.5039062 z M 15.339844 7.3398438 C 15.732811 7.3398438 16.11576 7.3816261 16.490234 7.4648438 C 16.864709 7.5434378 17.228719 7.6643635 17.580078 7.8261719 L 17.580078 9.0195312 C 17.219473 8.8207359 16.855463 8.6713047 16.490234 8.5742188 C 16.129629 8.4725096 15.764383 8.421875 15.394531 8.421875 C 14.566989 8.421875 13.924488 8.6858524 13.466797 9.2128906 C 13.009106 9.7353057 12.78125 10.470224 12.78125 11.417969 C 12.78125 12.365713 13.009106 13.103821 13.466797 13.630859 C 13.924488 14.153274 14.566989 14.414063 15.394531 14.414062 C 15.764383 14.414062 16.129629 14.364664 16.490234 14.267578 C 16.855463 14.165869 17.219473 14.017154 17.580078 13.818359 L 17.580078 14.996094 C 17.224096 15.162527 16.854424 15.287877 16.470703 15.371094 C 16.091605 15.45431 15.685812 15.496094 15.255859 15.496094 C 14.086204 15.496094 13.157598 15.127658 12.46875 14.392578 C 11.779902 13.657498 11.435547 12.666217 11.435547 11.417969 C 11.435547 10.151228 11.783091 9.1555208 12.476562 8.4296875 C 13.174657 7.7038542 14.128581 7.3398438 15.339844 7.3398438 z M 5.9082031 8.4082031 C 5.2332244 8.4082031 4.7027971 8.6766062 4.3144531 9.2128906 C 3.9307323 9.744552 3.7382812 10.479471 3.7382812 11.417969 C 3.7382813 12.356467 3.9307323 13.094575 4.3144531 13.630859 C 4.7027971 14.162521 5.2332244 14.427734 5.9082031 14.427734 C 6.5831819 14.427734 7.1155624 14.162521 7.5039062 13.630859 C 7.8922502 13.094575 8.0859375 12.356467 8.0859375 11.417969 C 8.0859375 10.479471 7.8922502 9.744552 7.5039062 9.2128906 C 7.1155624 8.6766062 6.5831819 8.4082031 5.9082031 8.4082031 z "
       style="fill:#ffffff;stroke-width:2.44952"
       id="path12" />
    <g
       style="font-style:normal;font-weight:normal;font-size:3.75769px;line-height:1.25;font-family:sans-serif;fill:#000000;fill-opacity:1;stroke:none;stroke-width:0.0939426"
       id="text16"
       aria-label="dc" />
  </g>
</svg>
